<?xml version="1.0" standalone="no"?>
<!DOCTYPE svg PUBLIC "-//W3C//DTD SVG 20010904//EN"
 "http://www.w3.org/TR/2001/REC-SVG-20010904/DTD/svg10.dtd">
<svg version="1.0" xmlns="http://www.w3.org/2000/svg"
 width="259.000000pt" height="194.000000pt" viewBox="0 0 259.000000 194.000000"
 preserveAspectRatio="xMidYMid meet">

<g transform="translate(0.000000,194.000000) scale(0.100000,-0.100000)"
fill="#000000" stroke="none">
<path d="M1 1774 c-1 -127 2 -165 12 -161 45 17 57 18 57 4 0 -16 -26 -41 -52
-50 -30 -11 -20 -24 13 -19 22 3 30 1 25 -7 -4 -6 -14 -11 -21 -11 -9 0 -12
-6 -9 -15 4 -8 -1 -17 -10 -21 -14 -5 -16 -24 -15 -118 0 -72 5 -114 12 -118
9 -6 9 -8 0 -8 -10 0 -13 -96 -13 -447 l0 -448 44 -2 c39 -1 45 1 50 23 8 31
21 30 42 -1 9 -14 20 -22 25 -19 5 3 0 17 -12 33 -11 15 -21 37 -22 49 -1 12
-4 22 -8 22 -13 0 -52 156 -64 258 -4 40 -3 52 6 47 6 -4 15 -1 20 6 11 18 14
6 29 -96 6 -44 18 -104 27 -132 15 -47 20 -53 44 -53 15 0 34 -3 43 -6 11 -4
16 -1 16 11 0 14 3 15 14 6 8 -7 26 -9 43 -5 16 4 25 3 20 -2 -5 -5 -14 -9
-20 -9 -5 0 -12 -6 -14 -12 -7 -21 10 -15 49 17 20 16 35 37 34 45 -2 17 -65
85 -78 85 -19 0 -5 -20 33 -48 24 -18 36 -33 29 -37 -5 -3 -8 -10 -5 -14 2 -5
-6 -9 -20 -9 -14 0 -22 4 -19 9 3 5 1 9 -4 9 -6 0 -12 -7 -16 -15 -3 -8 -11
-15 -18 -15 -9 0 -10 3 -2 8 15 10 30 57 15 48 -6 -4 -11 -13 -11 -20 0 -7 -6
-13 -14 -13 -8 0 -12 5 -10 12 3 6 -2 39 -10 73 -8 34 -10 60 -5 56 5 -3 9
-13 9 -22 0 -11 8 -18 20 -19 11 -1 20 2 20 8 0 5 -5 9 -11 9 -13 0 -39 62
-39 92 0 15 12 31 38 47 20 14 45 34 55 45 18 20 18 20 3 -11 -9 -17 -12 -33
-6 -35 6 -2 5 -9 -1 -18 -8 -11 -12 -12 -16 -2 -2 6 -9 12 -15 12 -6 0 -6 -6
2 -15 6 -8 9 -18 6 -23 -3 -6 2 -16 12 -23 15 -12 15 -12 5 1 -9 12 -7 20 7
38 10 12 23 22 29 22 15 0 14 17 -1 22 -13 5 -2 28 13 28 6 0 7 -5 4 -11 -4
-6 2 -17 14 -25 17 -12 19 -19 11 -34 -6 -12 -7 -21 0 -25 5 -3 13 7 16 22 9
34 34 63 34 39 0 -8 -5 -18 -10 -21 -6 -3 -10 -14 -10 -25 0 -26 44 -34 75
-14 14 9 31 14 39 11 8 -3 16 -1 19 6 2 8 6 7 11 -2 5 -8 -2 -16 -23 -24 -39
-15 -40 -30 -2 -24 21 4 31 0 36 -11 3 -9 3 -13 -1 -10 -4 4 -16 -4 -26 -18
-24 -29 -40 -27 -49 7 -6 20 -7 18 -6 -10 1 -20 -4 -36 -11 -39 -17 -5 -15
-22 3 -22 8 0 15 -6 15 -14 0 -8 10 -18 22 -22 20 -6 20 -8 -14 -25 -25 -13
-44 -16 -64 -10 -27 7 -28 8 -9 19 15 8 16 12 5 13 -8 1 -19 1 -25 -1 -5 -1
-5 4 1 10 19 19 49 8 48 -17 -1 -14 3 -20 12 -16 8 3 12 9 9 13 -3 5 5 6 17 4
23 -5 23 -5 0 6 -46 20 -72 70 -37 70 10 0 15 9 14 28 -1 15 -3 20 -6 11 -4
-15 -64 -36 -87 -30 -5 1 -5 -4 1 -11 11 -14 6 -78 -6 -78 -4 0 -5 -16 -3 -35
4 -32 2 -35 -19 -33 -16 2 -24 -3 -27 -15 -3 -15 0 -18 17 -12 26 8 27 1 1
-23 l-21 -19 28 3 c15 1 32 10 39 18 6 9 18 16 27 16 9 0 32 16 52 35 34 35
85 62 85 47 0 -5 -18 -19 -41 -31 -22 -13 -38 -25 -35 -28 3 -3 16 1 28 9 13
8 32 18 42 22 19 7 19 6 2 -13 -10 -11 -27 -23 -37 -26 -11 -4 -16 -11 -13
-17 5 -8 1 -9 -10 -5 -10 4 -20 7 -22 7 -3 0 -2 6 2 13 4 7 3 9 -2 4 -5 -5
-10 -13 -10 -18 -1 -5 -2 -13 -3 -17 0 -4 -17 -14 -36 -21 -19 -7 -35 -17 -35
-22 0 -6 -4 -8 -9 -4 -16 10 -21 -12 -10 -44 6 -17 17 -31 25 -31 8 0 14 -10
14 -21 0 -19 -4 -21 -30 -15 -17 3 -30 2 -30 -3 0 -4 -14 -8 -31 -9 -17 0 -28
2 -25 5 3 3 1 12 -4 18 -8 10 -3 16 19 23 16 6 32 8 34 5 3 -3 10 -2 16 2 7 4
6 16 -4 36 -9 16 -20 27 -25 24 -6 -4 -10 3 -10 14 0 26 -2 26 -42 1 l-33 -20
34 6 c23 5 32 4 27 -4 -6 -10 -64 -28 -79 -24 -4 1 -16 -2 -27 -8 -11 -6 -21
-6 -24 -1 -4 5 0 11 6 14 7 2 10 8 6 12 -4 4 -21 -3 -39 -16 -19 -13 -29 -17
-25 -8 4 7 -4 1 -19 -16 -21 -23 -25 -26 -21 -10 6 21 3 23 -54 28 l-25 2 -2
-167 -2 -168 194 0 c180 0 195 1 195 18 0 10 7 28 16 40 l16 23 39 -36 c43
-39 59 -44 59 -17 1 9 7 31 16 47 15 32 15 34 -2 -47 -6 -27 -6 -28 41 -28 40
0 46 2 41 17 -6 16 -6 16 12 0 11 -10 35 -17 58 -17 l39 1 -27 22 c-37 30 -36
43 2 16 24 -18 32 -20 45 -9 8 7 15 19 15 26 0 17 5 17 31 4 13 -7 19 -7 19 0
0 5 5 10 11 10 5 0 7 -5 4 -11 -4 -5 -4 -21 -1 -35 l6 -24 155 0 c97 0 155 4
155 10 0 6 -9 10 -20 10 -12 0 -17 5 -14 13 3 8 -9 18 -30 25 -19 7 -37 20
-40 29 -6 14 -4 14 10 2 12 -10 18 -11 21 -3 4 13 42 7 44 -7 1 -5 3 -13 4
-19 1 -5 3 -14 4 -20 2 -16 28 -12 35 5 9 23 29 18 23 -6 -5 -18 -2 -20 19
-15 17 5 24 2 24 -9 0 -8 9 -15 20 -15 17 0 19 5 14 25 -5 19 -2 25 10 25 19
0 22 26 4 33 -7 2 -10 7 -6 11 3 4 16 1 28 -6 18 -10 24 -10 27 -1 3 9 11 8
31 -5 15 -9 30 -20 33 -25 3 -4 13 -5 22 -1 10 3 24 1 32 -6 12 -10 16 -9 21
4 3 9 12 16 19 16 17 0 28 -31 19 -54 -9 -23 9 -20 24 4 7 12 20 19 30 18 11
-2 16 3 14 12 -1 9 6 6 18 -9 11 -13 20 -18 20 -12 0 5 16 21 35 34 19 13 32
27 28 30 -3 4 -1 7 5 7 7 0 12 -4 12 -9 0 -15 32 -22 46 -10 8 6 12 14 10 18
-2 3 7 7 20 7 13 1 22 -1 20 -5 -2 -3 8 -7 22 -8 24 -1 25 0 9 12 -21 15 -23
55 -2 55 9 0 18 -7 21 -15 4 -8 10 -12 15 -9 13 7 40 -16 33 -27 -3 -5 -1 -9
5 -9 5 0 13 5 16 10 3 6 12 10 18 10 7 0 -16 -25 -51 -56 -35 -31 -60 -59 -57
-62 3 -3 22 10 41 29 27 25 34 28 25 12 -6 -13 -16 -23 -21 -23 -6 0 -10 -4
-10 -10 0 -5 16 -10 36 -10 30 0 35 3 30 17 -6 14 -3 14 15 -3 22 -19 22 -19
16 4 -3 13 -3 21 0 18 3 -3 14 -1 24 4 25 14 37 -9 14 -27 -17 -12 -16 -13 11
-13 41 0 92 51 70 69 -12 10 -15 9 -19 -6 -2 -10 -4 -3 -3 14 1 25 6 33 20 33
11 0 16 5 13 14 -4 9 0 12 12 9 14 -3 21 4 29 27 7 17 16 29 22 25 15 -9 12
-17 -20 -54 -30 -34 -39 -61 -20 -61 5 0 16 15 23 33 8 17 26 46 40 63 15 18
27 36 27 40 0 5 -7 0 -15 -10 -8 -11 -18 -16 -22 -12 -7 7 23 30 39 31 9 0 37
37 38 48 0 5 -5 5 -12 1 -7 -4 -8 -3 -4 5 4 6 11 9 15 6 5 -2 23 23 41 56 64
120 61 111 42 125 -16 12 -16 13 0 14 28 0 50 30 43 59 -4 18 -3 22 4 12 7
-10 19 17 45 99 20 62 36 120 36 128 0 11 -10 13 -46 9 -57 -6 -44 12 14 20
l41 5 6 72 c8 83 -11 226 -29 221 -6 -2 -24 -6 -41 -9 -28 -6 -29 -5 -11 9 11
8 29 15 39 15 17 0 19 5 14 35 -6 35 -58 211 -80 270 -18 46 -118 194 -187
274 -34 40 -59 75 -56 78 3 3 36 -26 73 -64 61 -63 70 -69 91 -60 12 5 22 14
22 19 0 13 26 9 39 -6 9 -11 5 -18 -24 -36 -19 -12 -35 -24 -35 -27 0 -2 13
-23 28 -46 33 -48 60 -104 95 -197 110 -292 117 -549 21 -826 -13 -39 -24 -79
-24 -88 0 -12 -5 -16 -14 -13 -10 4 -13 1 -10 -8 7 -17 -64 -147 -76 -140 -5
3 -12 0 -16 -6 -4 -8 -3 -9 4 -5 19 12 14 -7 -16 -50 -55 -83 -107 -143 -119
-139 -7 2 -15 -1 -19 -7 -4 -7 -3 -8 4 -4 23 14 11 -6 -20 -35 l-32 -29 262 0
262 0 0 970 0 971 -260 -1 c-186 -1 -258 -4 -254 -12 5 -7 0 -9 -14 -6 -15 4
-19 2 -15 -8 3 -8 10 -11 16 -7 5 3 7 1 3 -5 -7 -12 -62 0 -80 18 -14 14 -27
13 -24 -2 4 -18 31 -37 42 -31 5 4 6 2 3 -4 -4 -5 2 -19 13 -30 10 -12 16 -24
13 -27 -4 -3 7 -18 23 -32 17 -16 22 -24 12 -21 -10 4 -18 2 -18 -2 0 -5 -7
-11 -14 -14 -10 -4 -13 -1 -10 8 4 9 -4 19 -20 26 -14 7 -26 16 -26 21 0 4
-12 9 -27 9 l-28 1 30 7 c20 4 26 9 17 14 -7 5 -26 5 -44 2 -22 -5 -27 -10
-17 -16 14 -8 10 -11 -36 -22 -11 -3 -27 -8 -35 -11 -12 -5 -15 3 -15 46 0 29
4 59 9 67 5 8 4 16 -5 22 -8 5 -252 9 -543 9 l-529 0 -56 -32 c-31 -17 -70
-42 -88 -56 -18 -13 -37 -20 -44 -16 -7 4 -9 3 -6 -4 4 -5 -11 -23 -33 -40
-22 -16 -36 -33 -32 -37 4 -5 2 -5 -4 -2 -6 4 -22 -5 -35 -20 -13 -14 -17 -22
-9 -18 8 5 -1 -7 -20 -26 -43 -42 -130 -157 -130 -171 0 -5 -4 -7 -9 -3 -5 3
-13 0 -17 -7 -4 -7 -4 -10 1 -6 8 8 74 -60 75 -77 0 -5 -10 2 -23 16 -44 51
-60 42 -112 -61 -22 -43 -75 -182 -75 -196 0 -2 6 -1 14 2 17 7 39 56 39 89
-1 14 3 28 8 31 5 3 9 -4 9 -16 0 -12 4 -18 10 -15 5 3 19 0 30 -8 19 -13 18
-14 -17 -28 -24 -9 -40 -24 -49 -46 -11 -24 -18 -30 -34 -26 -11 3 -20 4 -20
2 0 -18 -42 -214 -47 -218 -3 -4 -2 12 1 33 5 27 4 41 -5 47 -16 10 11 132 51
232 15 37 24 70 19 73 -8 5 -13 -9 -10 -28 0 -4 -7 -4 -16 -1 -12 5 -14 3 -8
-7 5 -9 4 -11 -4 -6 -9 6 -9 11 0 22 6 8 8 14 4 14 -4 0 -2 7 5 15 7 9 20 13
30 10 12 -4 22 8 40 47 30 65 104 184 136 219 30 31 24 58 -12 51 -13 -2 -24
-11 -24 -19 0 -8 4 -12 8 -9 5 3 8 -5 7 -17 -1 -16 -8 -22 -26 -21 -13 0 -23
5 -21 12 3 15 -18 11 -36 -5 -24 -23 -58 -9 -80 34 -14 25 4 45 19 22 7 -11 9
-10 9 4 0 10 11 22 24 27 13 5 27 14 31 19 3 6 14 11 23 11 11 0 13 -3 6 -8
-7 -4 -13 -16 -15 -27 -3 -11 -11 -20 -19 -20 -9 0 -14 -8 -12 -18 2 -10 -4
-17 -13 -17 -20 0 -15 -22 6 -28 11 -3 11 -1 -1 8 -13 10 -12 11 3 6 11 -3 20
0 24 9 3 11 12 13 27 9 18 -6 19 -5 7 10 -11 13 -11 16 0 16 8 0 20 9 27 20 9
15 9 20 0 20 -6 0 -9 2 -6 5 3 3 13 3 22 -1 12 -4 14 -10 6 -19 -7 -8 -5 -12
5 -12 8 0 15 4 15 9 0 4 8 8 18 8 13 0 14 -2 3 -9 -9 -6 -10 -11 -2 -15 6 -4
16 -4 21 -1 16 10 -8 35 -32 35 -16 0 -18 3 -9 13 6 8 8 17 4 20 -3 4 -1 7 6
7 6 0 16 11 21 25 11 30 40 33 64 6 13 -15 14 -20 4 -24 -7 -2 -10 -8 -6 -12
4 -4 17 3 30 17 13 13 49 43 81 67 58 44 67 56 45 63 -6 2 5 12 25 22 20 9 37
18 37 20 0 2 -41 4 -91 4 -69 1 -88 -1 -83 -11 5 -9 4 -9 -7 1 -7 6 -23 12
-36 12 -20 0 -22 -4 -17 -26 5 -18 3 -25 -4 -20 -6 3 -12 1 -14 -6 -2 -6 -14
3 -27 20 -16 23 -30 32 -51 32 -31 0 -49 -15 -28 -23 24 -9 -6 -27 -52 -31
-42 -5 -45 -3 -46 20 -1 13 1 22 5 20 3 -2 15 0 26 5 12 5 -14 8 -70 8 -53 0
-84 -3 -77 -8 10 -6 8 -10 -9 -14 -13 -4 -25 -4 -28 -2 -2 3 1 5 7 5 7 0 12 5
12 10 0 6 -11 10 -25 10 l-24 0 0 -166z m319 135 c0 -6 -4 -7 -10 -4 -5 3 -10
11 -10 16 0 6 5 7 10 4 6 -3 10 -11 10 -16z m132 -4 c2 3 5 -1 5 -7 0 -7 4
-22 8 -33 11 -28 2 -17 -24 30 -13 22 -16 32 -8 23 8 -10 16 -16 19 -13z m298
-11 c0 -8 -4 -12 -10 -9 -5 3 -10 10 -10 16 0 5 5 9 10 9 6 0 10 -7 10 -16z
m475 6 c9 -15 -28 -45 -51 -42 -11 2 -26 -4 -33 -12 -7 -8 -19 -12 -27 -9 -8
3 -14 -1 -14 -8 0 -10 -3 -10 -11 -2 -14 14 49 74 71 68 8 -3 22 0 30 5 19 12
27 12 35 0z m-718 -59 c-9 -12 -9 -13 1 -7 6 4 12 3 12 -2 0 -15 -43 -23 -52
-9 -7 11 -9 10 -12 -12 -2 -21 -21 -29 -33 -16 -10 11 -9 17 9 29 12 9 30 16
39 16 17 0 20 22 6 36 -4 4 -7 12 -7 17 0 5 11 -1 24 -14 20 -19 22 -27 13
-38z m-174 35 c4 -10 1 -13 -8 -9 -8 3 -12 9 -9 14 7 12 11 11 17 -5z m-164
-47 c-21 -13 -36 -11 -42 6 -9 22 10 28 23 8 9 -15 10 -13 5 12 l-6 30 17 -24
c14 -19 14 -25 3 -32z m1928 35 c5 -16 -45 -15 -51 1 -3 8 5 12 22 11 14 -1
27 -6 29 -12z m-2028 -49 c0 -5 -9 1 -19 14 -11 13 -20 28 -20 35 0 6 9 0 20
-14 11 -14 20 -29 19 -35z m1662 33 c33 -18 38 -25 32 -47 -8 -33 -22 -61 -31
-61 -4 0 -7 -17 -8 -39 -1 -32 4 -41 27 -55 15 -9 52 -37 83 -62 31 -25 57
-43 57 -40 1 4 2 12 3 19 1 7 13 11 31 9 41 -5 118 26 111 44 -9 23 23 28 45
8 37 -34 49 -67 38 -108 -10 -35 -39 -51 -39 -21 0 24 -32 34 -95 30 -36 -2
-66 1 -75 8 -8 7 -4 -1 8 -18 81 -109 162 -244 162 -273 0 -6 8 -9 18 -6 12 4
13 3 4 -4 -9 -6 -11 -18 -6 -37 l7 -27 24 31 c13 17 32 31 41 31 15 -1 16 -2
1 -13 -9 -7 -21 -22 -27 -34 -10 -19 -8 -24 16 -41 28 -20 71 -37 85 -34 4 1
7 -2 7 -8 0 -5 10 -15 23 -22 25 -15 28 -25 34 -127 3 -48 1 -71 -6 -67 -6 4
-11 -8 -13 -29 l-3 -35 -35 23 c-19 13 -46 28 -60 32 -22 7 -23 6 -11 -9 7 -9
17 -16 22 -16 4 0 29 -12 54 -27 l46 -28 -6 -54 c-3 -34 -1 -58 6 -67 9 -11 8
-14 -5 -14 -9 0 -16 -5 -16 -11 0 -6 7 -9 15 -5 9 3 15 0 15 -9 0 -8 -4 -15
-9 -15 -4 0 -14 -27 -21 -60 -7 -33 -17 -57 -21 -54 -5 3 -9 -5 -9 -18 0 -13
-4 -29 -9 -36 -14 -23 -73 -21 -113 4 -43 28 -58 47 -23 31 14 -7 25 -15 25
-19 0 -5 5 -8 10 -8 22 0 8 17 -30 39 -24 13 -37 27 -34 33 5 7 1 9 -9 5 -9
-3 -19 -2 -22 3 -4 6 -11 10 -17 10 -6 0 -5 -7 3 -17 13 -16 12 -17 -3 -4 -10
7 -16 17 -13 21 3 4 -1 10 -9 13 -23 9 -58 -49 -51 -84 6 -25 9 -28 22 -18 12
11 12 14 -2 21 -16 9 -12 28 6 28 6 0 8 -4 5 -9 -9 -15 22 -34 46 -28 12 4 37
-1 55 -9 28 -14 31 -19 22 -35 -8 -15 -14 -17 -29 -9 -16 8 -18 8 -14 -5 3 -8
10 -12 15 -9 16 10 9 -13 -12 -40 -11 -14 -16 -26 -10 -26 6 0 14 0 19 0 4 0
7 8 8 19 1 22 41 81 55 81 12 0 11 -17 -2 -25 -6 -4 -8 -13 -5 -21 3 -7 1 -16
-4 -19 -6 -4 -10 -11 -10 -17 0 -6 9 -3 21 8 17 16 22 16 29 4 13 -20 7 -36
-12 -32 -8 1 -23 -8 -34 -20 -10 -12 -13 -18 -6 -14 6 4 12 2 12 -4 0 -6 5 -8
11 -4 8 5 8 1 0 -14 -6 -12 -16 -24 -22 -28 -8 -4 -8 -1 -1 13 9 15 8 20 -3
20 -8 0 -12 -4 -9 -9 3 -4 0 -8 -6 -8 -6 0 -9 -4 -6 -9 6 -9 -45 -84 -66 -97
-10 -6 -11 -5 -1 8 7 8 9 19 5 23 -4 5 -1 5 7 0 10 -6 12 -4 6 4 -10 16 -18 7
-49 -55 -24 -48 -32 -56 -61 -64 -5 -2 -15 -10 -22 -19 -6 -9 -15 -13 -19 -8
-4 4 3 18 16 32 13 14 26 22 29 17 3 -4 14 0 24 10 9 10 14 18 11 18 -4 0 -2
6 3 12 7 9 -1 23 -28 49 -22 20 -41 34 -43 32 -2 -2 -9 4 -17 13 -12 16 -12
17 6 12 11 -3 29 -9 40 -13 l20 -8 -20 17 c-20 17 -20 17 3 11 21 -6 22 -5 11
13 -10 16 -10 23 4 36 8 9 24 16 35 16 27 0 51 29 32 40 -12 8 -11 16 8 50 34
59 35 62 10 54 -13 -4 -31 -7 -42 -6 -17 1 -17 0 -2 -17 15 -16 15 -21 1 -48
-21 -42 -43 -49 -51 -18 -3 14 -3 32 0 40 3 9 2 14 -3 11 -5 -3 -11 -24 -15
-46 l-6 -41 -45 31 c-43 30 -46 30 -70 14 -19 -13 -25 -25 -25 -54 0 -21 -6
-45 -14 -52 -7 -8 -17 -29 -21 -47 -8 -38 -36 -66 -93 -93 -28 -14 -46 -17
-55 -11 -20 16 -47 23 -47 13 0 -6 8 -10 18 -11 9 0 12 -3 5 -5 -17 -8 -82 25
-94 47 -8 16 -6 19 13 18 13 0 17 -3 10 -6 -6 -2 -10 -9 -7 -13 3 -5 13 -6 22
-3 10 4 14 2 10 -4 -4 -6 3 -8 18 -5 15 2 25 11 25 22 0 26 21 81 29 75 4 -2
8 3 8 11 0 11 -6 14 -21 9 -60 -17 -156 -35 -194 -35 -26 0 -41 -4 -37 -10 3
-5 1 -10 -4 -10 -6 0 -11 5 -11 11 0 6 -6 9 -14 6 -18 -7 -171 17 -245 39 -74
21 -173 73 -246 127 -42 32 -62 42 -68 34 -6 -8 -7 -6 -4 4 7 22 -37 64 -55
53 -7 -4 -19 -16 -26 -26 -15 -20 -67 -50 -74 -42 -3 3 -19 -17 -36 -43 -49
-76 -66 -182 -37 -233 l13 -25 22 49 c11 27 22 57 23 67 2 9 8 23 14 31 6 7
25 41 43 76 18 34 37 65 42 68 6 4 9 3 6 -2 -28 -58 -63 -134 -93 -203 l-38
-85 23 -18 c20 -16 40 -24 40 -14 0 2 -7 20 -15 39 -16 38 -20 65 -8 53 4 -3
8 -16 10 -27 4 -29 35 -79 48 -79 5 0 25 9 43 20 42 26 54 25 22 0 l-25 -20
50 17 c34 11 44 18 32 22 -16 6 -15 7 2 18 15 10 18 9 17 -5 0 -9 5 -16 12
-14 8 1 11 -2 7 -8 -3 -5 -27 -15 -51 -21 -32 -8 -42 -14 -32 -21 12 -8 -2 -7
-102 8 -55 9 -106 40 -120 73 -13 32 -10 140 5 175 6 14 5 18 -6 14 -21 -6
-54 -78 -40 -87 6 -4 -5 -7 -24 -8 -19 -1 -35 3 -35 8 0 4 6 6 13 4 7 -3 25
19 44 57 31 60 141 188 163 188 5 0 11 6 11 13 1 6 4 -1 8 -16 l6 -29 22 24
21 23 -48 75 c-27 41 -54 82 -62 90 -8 9 -14 25 -15 35 -4 53 -42 170 -54 167
-9 -2 -10 0 -1 11 7 8 9 17 5 20 -6 7 -5 119 1 155 2 9 7 39 10 65 4 27 10 59
13 70 4 12 6 43 7 69 0 26 4 44 8 42 5 -3 6 -10 3 -15 -4 -5 -3 -9 2 -9 4 0
19 24 33 52 27 58 26 56 100 146 141 172 368 276 605 277 55 0 120 -4 145 -8
26 -4 39 -4 32 1 -11 7 -10 12 3 26 9 9 21 14 26 11 5 -4 6 1 3 10 -5 11 -2
14 12 8 11 -4 15 -3 11 4 -4 7 7 13 27 17 19 4 37 13 40 21 8 22 72 19 117 -7z
m449 7 c11 -13 10 -14 -4 -9 -9 3 -16 10 -16 15 0 13 6 11 20 -6z m-1930 -5
c0 -5 -5 -10 -11 -10 -5 0 -7 5 -4 10 3 6 8 10 11 10 2 0 4 -4 4 -10z m-219
-33 c-1 -12 -15 -9 -19 4 -3 6 1 10 8 8 6 -3 11 -8 11 -12z m317 0 c17 -11 6
-26 -17 -24 -12 1 -17 6 -13 16 3 9 1 12 -6 7 -7 -4 -12 -2 -12 3 0 12 27 10
48 -2z m-219 -21 c-2 -2 -16 -7 -32 -11 -18 -5 -27 -3 -27 5 0 7 6 10 13 7 8
-3 20 -1 28 3 13 8 27 5 18 -4z m44 -6 c-4 -16 -8 -18 -20 -9 -11 10 -11 14
-1 20 21 14 26 10 21 -11z m907 -30 c-18 -11 -24 -6 -16 16 5 14 9 15 19 5 9
-9 9 -14 -3 -21z m1409 -10 c-40 -35 -59 -38 -52 -10 4 15 9 18 18 10 10 -8
17 -6 27 9 8 12 18 18 21 14 4 -3 7 0 7 7 0 7 3 10 7 6 4 -3 -9 -20 -28 -36z
m-1588 -3 c25 7 25 -14 -1 -22 -11 -3 -20 -10 -20 -15 0 -5 -6 -7 -14 -4 -9 3
-20 -4 -27 -18 -7 -13 -35 -45 -62 -73 l-49 -50 32 53 c18 29 45 66 62 82 16
17 28 36 25 43 -2 6 3 17 12 24 13 9 17 8 19 -7 2 -12 9 -16 23 -13z m-581
-19 c0 -5 -10 -6 -22 -2 -31 9 -35 14 -18 24 15 9 40 -4 40 -22z m2006 6 c-3
-8 -2 -12 4 -9 6 4 17 -1 26 -9 9 -9 11 -16 4 -16 -6 0 -9 -4 -6 -9 4 -5 -4
-7 -16 -4 -19 4 -20 3 -8 -7 13 -10 13 -11 0 -7 -8 2 -14 12 -12 21 2 9 -4 19
-13 22 -12 5 -13 9 -4 20 15 19 33 18 25 -2z m-1827 -21 c13 -28 13 -28 -8 -9
-22 20 -27 36 -13 36 5 0 14 -12 21 -27z m1996 -3 c3 -5 1 -10 -4 -10 -6 0
-11 5 -11 10 0 6 2 10 4 10 3 0 8 -4 11 -10z m-2365 -105 c-7 -8 -17 -12 -22
-9 -6 4 -5 10 3 15 22 14 33 10 19 -6z m-48 -32 c-6 -3 -10 -9 -7 -14 4 -5 -1
-6 -10 -3 -14 6 -14 8 2 19 10 8 20 11 23 8 3 -3 -1 -8 -8 -10z m2408 -29 c0
-14 -4 -22 -10 -19 -6 4 -7 -1 -3 -12 5 -14 3 -15 -6 -7 -10 9 -10 17 -2 32 9
18 8 19 -12 15 -21 -4 -21 -4 -3 11 24 19 36 12 36 -20z m-2350 6 c0 -5 -5
-10 -11 -10 -5 0 -7 5 -4 10 3 6 8 10 11 10 2 0 4 -4 4 -10z m2361 -53 c-8 -8
-11 -7 -11 4 0 9 3 19 7 23 4 4 9 2 11 -4 3 -7 -1 -17 -7 -23z m-2171 13 c0
-5 -5 -10 -11 -10 -5 0 -7 5 -4 10 3 6 8 10 11 10 2 0 4 -4 4 -10z m1990 -80
c0 -5 -9 -10 -21 -10 -11 0 -17 5 -14 10 3 6 13 10 21 10 8 0 14 -4 14 -10z
m-2163 -6 c-3 -3 -12 -4 -19 -1 -8 3 -5 6 6 6 11 1 17 -2 13 -5z m93 -59 c-11
-22 -20 -34 -20 -27 0 16 30 75 36 70 2 -3 -5 -22 -16 -43z m295 -5 c3 -6 -1
-7 -9 -4 -18 7 -21 14 -7 14 6 0 13 -4 16 -10z m-99 -33 c3 -21 1 -21 -20 2
-17 19 -17 19 0 17 9 -2 18 -10 20 -19z m-46 -7 c0 -4 -6 -13 -14 -19 -10 -9
-15 -8 -19 3 -3 8 -4 16 -1 18 7 7 34 5 34 -2z m1885 -132 c22 -62 42 -116 43
-120 2 -5 0 -8 -6 -8 -5 0 -14 18 -21 40 -6 22 -16 40 -21 40 -5 0 -7 -7 -3
-16 5 -14 2 -16 -23 -10 -50 12 -58 29 -29 56 l26 24 6 -22 c3 -12 9 -22 14
-22 12 0 12 17 0 24 -5 3 -14 27 -21 53 -18 67 -19 73 -12 73 4 0 25 -51 47
-112z m-1790 22 c3 -5 2 -10 -4 -10 -5 0 -13 5 -16 10 -3 6 -2 10 4 10 5 0 13
-4 16 -10z m1716 -22 c-11 -19 -29 -34 -41 -34 -23 -1 -24 0 -9 27 9 18 40 37
62 38 5 1 0 -14 -12 -31z m-2046 -60 c-29 -130 -31 -152 -12 -143 6 4 3 -1 -7
-9 -27 -22 -36 -20 -36 7 0 20 23 120 35 155 8 22 26 13 20 -10z m120 -68 c-3
-5 -12 -10 -18 -10 -7 0 -6 4 3 10 19 12 23 12 15 0z m-20 -50 c-10 -11 -20
-18 -23 -16 -5 6 21 35 32 36 5 0 1 -9 -9 -20z m-199 -98 c-12 -11 -16 6 -9
39 l8 34 3 -33 c2 -19 1 -36 -2 -40z m167 28 c3 -11 1 -23 -4 -26 -5 -3 -9 6
-9 20 0 31 6 34 13 6z m-103 -16 c0 -8 -7 -14 -15 -14 -8 0 -15 9 -15 20 0 13
5 18 15 14 8 -4 15 -12 15 -20z m2197 -11 c-3 -10 -5 -4 -5 12 0 17 2 24 5 18
2 -7 2 -21 0 -30z m-2062 -13 c3 -5 -1 -10 -9 -10 -9 0 -16 -5 -16 -11 0 -7
10 -9 25 -5 19 5 23 3 19 -9 -5 -11 -2 -13 10 -9 10 4 16 1 16 -7 0 -17 -67
-62 -80 -54 -6 3 -7 -1 -4 -9 3 -9 2 -16 -4 -16 -14 0 -20 22 -12 44 4 14 9
16 14 8 4 -7 12 -12 18 -12 6 0 5 7 -3 17 -13 15 -12 15 8 2 12 -7 25 -10 29
-6 10 10 -28 38 -43 32 -16 -5 -16 -2 -1 30 12 26 23 32 33 15z m-135 -15 c0
-8 -2 -15 -4 -15 -2 0 -6 7 -10 15 -3 8 -1 15 4 15 6 0 10 -7 10 -15z m353 -8
c3 -7 -3 -13 -14 -14 -15 -1 -16 1 -6 12 15 18 14 18 20 2z m-426 -29 c-3 -8
-6 -5 -6 6 -1 11 2 17 5 13 3 -3 4 -12 1 -19z m96 -4 c36 -13 15 -20 -33 -10
-27 5 -50 14 -50 19 0 8 53 3 83 -9z m257 -6 c0 -13 -23 -5 -28 10 -2 7 2 10
12 6 9 -3 16 -11 16 -16z m-188 -233 c3 -13 1 -22 -3 -19 -9 5 -13 44 -5 44 2
0 6 -11 8 -25z m-172 -14 c0 -5 -7 -12 -16 -15 -14 -5 -15 -4 -4 9 14 17 20
19 20 6z m1965 -80 c3 -5 2 -12 -3 -15 -5 -3 -9 1 -9 9 0 17 3 19 12 6z
m-1318 -168 c0 -10 -9 -27 -20 -38 -19 -20 -19 -20 -6 5 7 14 14 28 15 33 3
15 4 17 7 17 2 0 4 -8 4 -17z m1313 1 c0 -8 -4 -12 -10 -9 -5 3 -10 10 -10 16
0 5 5 9 10 9 6 0 10 -7 10 -16z m240 -16 c0 -4 -4 -8 -9 -8 -6 0 -12 4 -15 8
-3 5 1 9 9 9 8 0 15 -4 15 -9z m-96 -6 c3 -5 -1 -9 -9 -9 -8 0 -12 4 -9 9 3 4
7 8 9 8 2 0 6 -4 9 -8z m-1984 -6 c0 -3 -4 -8 -10 -11 -5 -3 -10 -1 -10 4 0 6
5 11 10 11 6 0 10 -2 10 -4z m-100 -20 c0 -8 -4 -17 -9 -21 -6 -3 -9 4 -8 15
1 23 17 28 17 6z m537 -8 c-3 -8 -6 -5 -6 6 -1 11 2 17 5 13 3 -3 4 -12 1 -19z
m110 16 c-3 -3 -12 -4 -19 -1 -8 3 -5 6 6 6 11 1 17 -2 13 -5z m106 -31 c-5
-12 -7 -12 -14 -1 -13 20 -11 28 5 22 8 -3 12 -12 9 -21z m-738 -17 c-11 -8
-24 -12 -29 -8 -5 3 -1 9 10 13 31 12 39 10 19 -5z m170 -5 c-2 -9 -4 -18 -5
-21 -1 -3 -2 -8 -1 -12 0 -4 -8 -6 -19 -5 -24 2 -27 27 -4 27 9 0 14 6 11 13
-3 8 1 14 8 14 7 0 11 -7 10 -16z m545 15 c0 -2 -9 -6 -20 -9 -11 -3 -20 -1
-20 4 0 5 9 9 20 9 11 0 20 -2 20 -4z m-697 -40 c3 -8 -1 -20 -9 -26 -10 -9
-14 -9 -14 -1 0 6 6 11 13 12 10 0 10 2 0 6 -15 5 -17 23 -4 23 5 0 11 -6 14
-14z m754 -6 c-3 -11 -1 -20 5 -20 5 0 6 -4 3 -10 -11 -18 -34 13 -24 33 13
23 23 22 16 -3z m1025 -4 c10 6 11 5 1 -8 -7 -8 -9 -18 -5 -23 4 -4 0 -6 -8
-3 -8 3 -15 9 -15 14 0 5 -4 16 -10 24 -7 13 -6 13 8 2 9 -8 22 -10 29 -6z
m-1074 -31 c-3 -33 -16 -33 -14 0 0 14 4 25 8 25 4 0 7 -11 6 -25z m1142 -21
c0 4 5 4 11 1 7 -5 4 -14 -7 -26 -13 -14 -20 -16 -31 -8 -9 8 -17 8 -26 0 -14
-11 -27 -6 -27 10 0 5 8 6 18 3 14 -5 14 -3 -2 10 -20 16 -12 21 23 16 13 -1
13 1 1 17 -8 10 -2 7 13 -6 15 -14 27 -21 27 -17z m-1920 5 c0 -11 -4 -17 -10
-14 -13 8 -13 35 0 35 6 0 10 -9 10 -21z m393 -60 c-10 -37 -29 -50 -29 -20 0
11 3 18 7 15 4 -2 11 10 15 28 4 18 9 28 11 21 2 -6 0 -26 -4 -44z m312 41 c3
-6 -4 -10 -17 -10 -18 0 -20 2 -8 10 19 12 18 12 25 0z m472 -92 c-3 -8 -6 -5
-6 6 -1 11 2 17 5 13 3 -3 4 -12 1 -19z m323 2 c0 -5 -4 -10 -10 -10 -5 0 -10
5 -10 10 0 6 5 10 10 10 6 0 10 -4 10 -10z m481 -23 c-10 -9 -11 -8 -5 6 3 10
9 15 12 12 3 -3 0 -11 -7 -18z"/>
<path d="M1555 1740 c-3 -5 1 -10 9 -10 9 0 16 5 16 10 0 6 -4 10 -9 10 -6 0
-13 -4 -16 -10z"/>
<path d="M1670 1726 c0 -2 7 -6 15 -10 8 -3 15 -1 15 4 0 6 -7 10 -15 10 -8 0
-15 -2 -15 -4z"/>
<path d="M1177 1520 c-98 -32 -162 -70 -222 -130 -22 -23 -48 -48 -57 -57 -9
-9 -16 -19 -14 -22 1 -3 -8 -16 -21 -28 -19 -19 -23 -20 -23 -6 0 13 -3 14
-12 5 -22 -22 -49 -282 -29 -282 6 0 11 4 11 8 0 10 103 -2 148 -16 39 -13 73
-50 68 -75 -2 -10 4 -22 15 -27 30 -17 23 -44 -16 -63 -44 -21 -55 -21 -55 -2
0 8 -3 15 -7 15 -5 0 -27 17 -50 38 -115 103 -133 98 -94 -26 24 -75 44 -113
90 -177 37 -51 86 -105 96 -105 12 0 4 59 -10 70 -8 7 -15 20 -15 30 0 14 7
16 43 12 23 -3 56 -6 72 -6 17 -1 33 -5 37 -11 4 -5 35 -10 69 -11 34 -2 73
-5 87 -9 19 -5 23 -3 19 8 -4 11 0 13 14 10 10 -3 19 -9 19 -14 0 -5 6 -8 12
-6 7 1 14 -8 16 -20 4 -26 -79 -113 -108 -113 -11 0 -30 -5 -44 -11 -20 -9
-29 -9 -41 1 -8 7 -25 10 -40 6 -15 -4 -25 -2 -25 4 0 6 6 8 13 4 6 -4 3 3 -8
15 -25 28 -61 43 -86 36 -17 -6 -16 -9 11 -32 17 -14 34 -23 37 -19 3 3 -2 8
-11 12 -9 3 -16 13 -16 22 0 13 3 12 20 -3 11 -10 22 -26 25 -36 4 -11 22 -23
45 -29 63 -17 133 -31 168 -33 31 -3 33 -1 27 23 -4 18 -3 21 4 11 8 -12 13
-9 28 17 12 22 26 32 43 33 14 0 19 3 13 6 -7 2 -13 9 -13 15 0 6 6 8 13 5 7
-3 13 5 13 19 3 34 16 47 72 67 37 14 55 15 75 8 26 -10 37 -31 17 -31 -5 0
-10 -7 -10 -15 0 -8 -4 -15 -9 -15 -16 0 -21 -31 -8 -45 43 -43 295 207 297
294 0 22 -47 -34 -54 -65 -5 -20 -10 -24 -16 -15 -5 10 -10 4 -15 -18 -9 -41
-22 -40 -30 3 -11 57 -3 80 29 86 23 4 29 11 32 36 3 27 0 32 -21 36 -14 3
-25 1 -25 -5 0 -5 -9 -7 -21 -4 -18 5 -20 2 -15 -18 3 -13 1 -27 -4 -30 -8 -5
-8 -11 0 -20 6 -8 10 -28 8 -46 -2 -27 -10 -37 -40 -53 -43 -22 -50 -19 -52
23 -1 16 -4 27 -8 24 -18 -10 -6 43 13 63 20 21 20 24 5 46 -9 12 -16 18 -16
12 0 -15 -28 -13 -34 3 -3 7 -1 13 4 13 6 0 10 10 10 23 1 21 1 21 14 4 19
-24 29 -6 16 29 -6 15 -8 29 -6 31 3 3 -7 16 -22 29 -15 13 -22 24 -16 24 7 0
12 10 13 23 2 51 6 63 22 64 12 1 15 -4 12 -18 -3 -10 -1 -19 5 -19 6 0 13 -9
17 -19 6 -20 31 -31 53 -23 10 3 10 7 2 17 -10 11 -7 12 14 2 14 -7 20 -15 14
-18 -7 -4 -5 -10 5 -15 8 -5 18 -27 22 -49 6 -35 5 -38 -8 -23 -8 10 -17 15
-20 11 -4 -3 -5 8 -3 24 4 28 2 30 -30 29 -33 -1 -34 -2 -28 -36 14 -72 13
-72 97 -74 76 -3 77 -2 79 23 2 36 1 46 -17 131 -8 41 -18 90 -21 108 -5 24
-11 31 -22 27 -12 -4 -13 -3 -3 9 9 11 10 20 1 36 -6 11 -15 18 -20 15 -4 -3
-10 0 -12 5 -2 6 -24 12 -50 13 -25 1 -44 -1 -41 -5 6 -11 -11 -10 -22 1 -17
15 -65 22 -65 10 0 -7 -7 -8 -17 -4 -16 7 -34 11 -68 14 -5 1 -19 8 -29 16
-19 14 -19 15 0 37 19 21 19 21 -1 14 -43 -17 -58 -19 -51 -7 4 6 12 9 17 6 5
-3 6 2 2 11 -5 14 -2 16 20 12 20 -4 30 0 41 17 15 24 6 45 -21 45 -7 0 -17 9
-23 20 -6 11 -15 20 -21 20 -5 0 -2 -11 7 -25 9 -14 13 -25 8 -25 -4 0 -3 -5
4 -12 17 -17 15 -25 -8 -31 -14 -4 -20 0 -20 11 0 13 -2 14 -9 4 -7 -11 -10
-10 -15 3 -8 21 -8 25 2 24 30 -5 34 3 12 26 -16 17 -19 25 -9 25 28 1 -14 17
-76 30 -33 7 -64 14 -70 16 -5 1 -50 -10 -98 -26z m-21 -67 c-8 -9 -37 18 -30
28 3 5 12 2 21 -6 8 -9 13 -19 9 -22z m54 27 c0 -5 7 -10 15 -10 8 0 15 -2 15
-4 0 -2 3 -11 6 -20 4 -11 1 -16 -10 -16 -9 0 -16 5 -16 10 0 6 -11 15 -25 22
-13 6 -22 15 -19 19 7 12 34 11 34 -1z m70 -10 c0 -5 -2 -10 -4 -10 -3 0 -8 5
-11 10 -3 6 -1 10 4 10 6 0 11 -4 11 -10z m-210 -30 c0 -5 -4 -10 -10 -10 -5
0 -10 -7 -10 -17 0 -9 -3 -14 -6 -10 -8 8 5 47 17 47 5 0 9 -4 9 -10z m84 -21
c3 1 5 -2 4 -6 -1 -5 -8 -7 -15 -5 -22 5 -4 -22 22 -35 21 -9 25 -9 25 4 0 8
5 11 10 8 6 -4 7 -11 4 -17 -8 -13 12 -2 39 20 24 21 22 1 -3 -26 -12 -12 -18
-22 -15 -22 3 0 3 -5 0 -10 -5 -8 -11 -7 -21 1 -11 9 -14 8 -14 -2 0 -8 -10
-25 -21 -39 -11 -14 -18 -20 -15 -14 5 10 -21 12 -49 3 -12 -4 -59 21 -52 28
3 2 16 0 29 -7 22 -11 22 -10 4 4 -11 9 -23 16 -27 16 -15 0 -17 29 -2 47 14
17 14 17 9 -2 -5 -17 -3 -17 15 4 11 14 18 33 16 43 -3 10 -2 16 2 14 4 -3 13
-1 21 4 9 5 17 5 21 -1 3 -6 9 -10 13 -10z m56 11 c0 -5 -2 -10 -4 -10 -3 0
-8 5 -11 10 -3 6 -1 10 4 10 6 0 11 -4 11 -10z m108 -8 c-10 -2 -18 -8 -18
-14 0 -6 -3 -8 -6 -5 -11 10 17 38 30 30 7 -5 5 -9 -6 -11z m89 -28 c-9 -9
-28 6 -21 18 4 6 10 6 17 -1 6 -6 8 -13 4 -17z m-126 -57 c-13 -13 -15 1 -4
30 7 17 8 17 11 -1 2 -10 -1 -23 -7 -29z m-282 2 c-8 -15 -14 -18 -22 -10 -6
6 -22 12 -36 12 -18 1 -14 4 14 9 22 4 44 8 48 9 4 0 3 -8 -4 -20z m-39 -52
c-4 -5 -18 -7 -31 -5 -22 3 -22 4 -5 20 14 14 20 15 31 5 7 -6 10 -16 5 -20z
m317 11 c-3 -8 -6 -5 -6 6 -1 11 2 17 5 13 3 -3 4 -12 1 -19z m-219 -31 c8
-10 6 -13 -7 -13 -11 0 -17 6 -14 13 3 7 6 13 8 13 1 0 7 -6 13 -13z m100 -23
l27 -26 -32 18 c-18 10 -33 22 -33 26 0 14 10 9 38 -18z m172 16 c0 -5 -5 -10
-11 -10 -5 0 -7 5 -4 10 3 6 8 10 11 10 2 0 4 -4 4 -10z m-457 -15 c-3 -9 -8
-14 -10 -11 -3 3 -2 9 2 15 9 16 15 13 8 -4z m-39 -10 c3 -8 1 -15 -4 -15 -6
0 -10 7 -10 15 0 8 2 15 4 15 2 0 6 -7 10 -15z m266 -6 c0 -6 -4 -7 -10 -4 -5
3 -10 11 -10 16 0 6 5 7 10 4 6 -3 10 -11 10 -16z m641 -26 c-8 -32 -51 -46
-51 -18 0 12 6 16 20 12 11 -3 18 -1 14 4 -6 11 3 29 16 29 4 0 5 -12 1 -27z
m-791 -19 c4 -23 11 -30 33 -32 27 -3 38 -18 15 -19 -7 -1 -28 -6 -45 -11
l-33 -11 0 56 c0 39 4 53 13 51 6 -3 14 -18 17 -34z m238 -1 c6 -9 12 -22 12
-29 0 -20 19 -27 36 -13 25 20 29 1 4 -21 -13 -12 -17 -20 -10 -20 7 0 11 -2
8 -5 -3 -3 -17 -1 -32 4 -24 10 -26 9 -26 -17 0 -15 -9 -35 -20 -45 -24 -20
-30 -21 -30 -4 0 20 -46 42 -62 30 -7 -5 -20 -12 -29 -16 -12 -4 -15 0 -11 19
2 14 11 24 21 24 36 0 91 22 91 35 0 8 5 15 12 15 7 0 -3 15 -20 33 -18 18
-30 36 -26 39 9 10 68 -11 82 -29z m598 21 c-3 -9 -6 -19 -6 -23 0 -4 -7 -8
-15 -8 -8 0 -13 3 -11 6 2 3 6 14 9 24 4 9 11 17 18 17 6 0 8 -7 5 -16z m-399
-29 c35 0 63 4 63 10 0 6 5 3 10 -5 6 -10 10 -11 10 -2 0 6 5 12 11 12 15 0
36 -23 32 -36 -2 -5 10 -10 27 -9 24 0 29 3 24 17 -4 13 0 18 15 18 11 0 22
-4 26 -10 7 -11 -41 -44 -53 -36 -6 3 -14 0 -20 -7 -14 -17 2 -42 22 -34 22 9
46 -2 46 -20 0 -13 -3 -13 -15 -3 -13 11 -20 9 -39 -9 -20 -19 -31 -21 -89
-17 -48 3 -67 1 -67 -7 0 -7 -10 3 -21 21 -23 35 -39 41 -40 15 0 -10 -12 6
-25 36 -19 41 -22 56 -13 67 6 8 16 10 23 6 6 -4 39 -7 73 -7z m-268 -21 c13
-3 21 -8 17 -11 -9 -9 -55 -10 -50 -1 7 12 -3 10 -26 -4 -15 -10 -22 -10 -32
0 -10 10 -10 14 0 21 13 8 36 6 91 -5z m-264 -14 c-3 -5 -1 -10 4 -10 6 0 11
-4 11 -10 0 -5 -7 -10 -15 -10 -15 0 -21 21 -8 33 10 10 15 8 8 -3z m420 -70
c8 -13 -13 -50 -29 -50 -18 0 -54 33 -49 45 4 13 70 18 78 5z m440 0 c3 -6 -1
-7 -9 -4 -18 7 -21 14 -7 14 6 0 13 -4 16 -10z m-401 -35 c11 -8 15 -15 10
-15 -6 0 -19 7 -30 15 -10 8 -14 14 -9 14 6 0 19 -6 29 -14z m67 -17 c0 -10 2
-10 6 0 7 17 20 15 27 -4 8 -21 -11 -54 -28 -48 -9 3 -17 -3 -21 -15 -3 -12
-10 -21 -15 -21 -4 0 -11 -7 -14 -16 -4 -12 -2 -15 9 -10 8 3 15 0 16 -7 0 -9
2 -9 6 0 3 10 11 9 34 -2 16 -9 29 -19 30 -23 6 -39 5 -73 -2 -78 -15 -9 -10
-34 6 -34 8 0 15 -4 15 -9 0 -26 -88 -49 -97 -24 -6 15 20 59 50 85 24 21 15
37 -19 33 -21 -2 -25 1 -21 16 8 31 -3 21 -19 -16 -8 -19 -19 -35 -25 -35 -6
0 -9 -9 -6 -20 3 -11 1 -20 -4 -20 -5 0 -9 7 -9 16 0 14 -3 14 -15 4 -13 -11
-14 -10 -10 1 3 9 -5 18 -25 26 -16 6 -30 8 -30 3 0 -5 6 -10 13 -13 6 -2 9
-8 4 -12 -4 -5 -12 -4 -18 2 -6 6 -18 9 -25 6 -10 -4 -7 -10 11 -25 14 -10 29
-17 34 -14 5 3 4 -10 -2 -30 -8 -27 -15 -34 -29 -31 -10 3 -16 1 -12 -4 3 -5
-8 -9 -25 -9 -33 0 -49 20 -56 71 -4 36 11 83 24 74 5 -3 12 3 15 12 7 21 50
43 82 43 13 0 26 5 29 11 4 6 13 8 21 5 8 -3 14 -1 14 4 0 6 8 11 18 11 9 1 1
5 -18 9 -21 4 -26 8 -14 9 20 1 43 41 23 41 -4 0 -6 7 -3 15 4 10 14 13 30 9
18 -5 24 -2 24 10 0 19 20 22 21 4z m124 2 c3 -5 -3 -20 -14 -32 -12 -12 -21
-26 -21 -30 0 -5 -4 -6 -10 -3 -5 3 -10 11 -10 16 0 6 5 7 10 4 15 -9 31 38
16 47 -7 5 -5 8 6 8 9 0 20 -4 23 -10z m103 -8 c2 -7 -3 -12 -12 -12 -9 0 -16
7 -16 16 0 17 22 14 28 -4z m-561 -27 c3 -9 3 -19 -1 -22 -8 -9 -37 18 -30 28
8 14 24 11 31 -6z m158 -5 c3 -5 -1 -10 -9 -10 -9 0 -16 5 -16 10 0 6 4 10 9
10 6 0 13 -4 16 -10z m410 -18 c-18 -30 -57 -52 -89 -52 -13 1 0 11 32 26 38
17 52 29 48 39 -3 9 1 15 10 15 13 0 13 -3 -1 -28z m25 -110 c0 -5 -9 -17 -20
-27 -16 -14 -20 -15 -20 -4 0 16 19 39 32 39 4 0 8 -4 8 -8z m-73 -27 c2 -6
-7 -16 -19 -24 -19 -12 -23 -11 -33 3 -7 9 -18 17 -26 17 -8 1 0 5 16 9 37 10
57 8 62 -5z m-616 -62 c-12 -20 -14 -14 -5 12 4 9 9 14 11 11 3 -2 0 -13 -6
-23z m599 -3 c0 -5 -8 -10 -17 -10 -15 0 -16 2 -3 10 19 12 20 12 20 0z m-220
-64 c0 -3 -4 -8 -10 -11 -5 -3 -10 -1 -10 4 0 6 5 11 10 11 6 0 10 -2 10 -4z
m161 -39 c-10 -9 -11 -8 -5 6 3 10 9 15 12 12 3 -3 0 -11 -7 -18z"/>
<path d="M1297 883 c-4 -3 -7 -12 -7 -20 0 -11 4 -11 19 -1 11 7 17 16 15 20
-6 10 -18 10 -27 1z"/>
<path d="M1170 830 c0 -11 4 -20 9 -20 5 0 7 9 4 20 -3 11 -7 20 -9 20 -2 0
-4 -9 -4 -20z"/>
<path d="M1243 843 c9 -2 15 -9 12 -14 -4 -5 4 -9 16 -9 18 0 19 2 9 15 -7 8
-22 14 -34 14 -17 -1 -18 -2 -3 -6z"/>
<path d="M1150 750 c-13 -8 -12 -10 3 -10 9 0 17 5 17 10 0 12 -1 12 -20 0z"/>
<path d="M1520 1471 c0 -5 7 -11 14 -14 11 -5 13 -13 6 -36 -8 -29 2 -52 14
-32 6 9 31 4 81 -15 16 -6 15 -2 -8 23 -15 16 -25 32 -21 35 6 7 -18 22 -60
38 -14 5 -26 6 -26 1z"/>
<path d="M1660 1394 c0 -18 16 -31 43 -38 23 -5 27 -3 27 14 0 13 -7 20 -19
20 -11 0 -26 3 -35 6 -9 3 -16 2 -16 -2z"/>
<path d="M2110 1135 c0 -8 5 -15 10 -15 6 0 10 7 10 15 0 8 -4 15 -10 15 -5 0
-10 -7 -10 -15z"/>
<path d="M2120 1095 c0 -8 9 -19 20 -25 11 -6 20 -8 20 -6 0 3 21 -4 48 -15
46 -19 47 -19 22 0 -24 19 -97 61 -106 61 -2 0 -4 -7 -4 -15z"/>
<path d="M2120 1040 c0 -5 10 -15 23 -21 12 -7 25 -17 29 -23 4 -6 11 -7 15
-2 4 4 -5 19 -22 32 -32 26 -45 30 -45 14z"/>
<path d="M2286 1003 c-6 -14 -5 -15 5 -6 7 7 10 15 7 18 -3 3 -9 -2 -12 -12z"/>
<path d="M2292 920 c0 -14 2 -19 5 -12 2 6 2 18 0 25 -3 6 -5 1 -5 -13z"/>
<path d="M2150 915 c0 -18 -16 -20 -23 -2 -3 6 -6 8 -6 2 0 -5 4 -17 10 -25 8
-11 12 -12 16 -2 2 6 8 10 13 7 4 -3 6 4 3 15 -6 24 -13 26 -13 5z"/>
<path d="M2110 840 c0 -4 6 -11 13 -13 7 -3 4 -6 -7 -6 -15 -1 -16 -4 -6 -16
16 -20 30 -19 30 2 0 15 1 15 18 0 10 -10 23 -17 28 -17 6 0 19 -6 29 -14 18
-13 17 -16 -15 -66 -27 -43 -35 -49 -40 -35 -5 14 -8 16 -15 6 -4 -8 -2 -17 6
-22 16 -10 46 -12 36 -3 -3 3 10 31 30 61 28 44 32 57 22 64 -8 5 -19 9 -26 9
-7 0 -17 8 -22 18 -6 9 -11 13 -11 9 0 -5 -16 0 -35 12 -19 11 -35 16 -35 11z"/>
<path d="M2100 775 c7 -8 19 -15 26 -15 8 0 14 -5 14 -11 0 -5 5 -7 11 -3 13
8 -27 43 -50 44 -11 0 -11 -3 -1 -15z"/>
<path d="M2092 679 c-18 -17 -30 -24 -26 -15 9 23 -1 20 -18 -6 -20 -30 -35
-80 -18 -58 10 13 11 13 6 -2 -6 -20 29 -49 49 -42 7 3 19 -3 26 -13 8 -11 34
-29 58 -42 34 -17 46 -19 55 -10 8 9 8 10 -2 5 -6 -4 -20 1 -29 10 -14 13 -15
18 -5 22 10 3 7 8 -7 19 -12 8 -25 12 -29 9 -5 -3 -8 7 -7 21 0 16 8 29 19 33
17 6 16 8 -9 28 -15 12 -32 22 -38 22 -5 0 -4 7 3 15 25 31 3 34 -28 4z"/>
<path d="M2250 660 c-6 -12 -10 -33 -8 -48 2 -21 5 -17 14 21 11 52 10 57 -6
27z"/>
<path d="M1090 640 c0 -5 9 -10 21 -10 11 0 17 5 14 10 -3 6 -13 10 -21 10 -8
0 -14 -4 -14 -10z"/>
<path d="M1290 586 c0 -9 30 -14 35 -6 4 6 -3 10 -14 10 -12 0 -21 -2 -21 -4z"/>
<path d="M2262 570 c0 -14 2 -19 5 -12 2 6 2 18 0 25 -3 6 -5 1 -5 -13z"/>
<path d="M2015 570 c3 -5 11 -10 16 -10 6 0 7 5 4 10 -3 6 -11 10 -16 10 -6 0
-7 -4 -4 -10z"/>
<path d="M1521 531 c-18 -18 -19 -24 -9 -35 7 -8 15 -10 18 -5 3 4 15 12 26
16 20 8 20 9 3 26 -17 18 -18 18 -38 -2z"/>
<path d="M633 483 c4 -6 0 -16 -8 -23 -8 -7 -15 -9 -15 -5 0 12 -30 -17 -41
-39 -7 -13 -1 -9 15 9 14 17 25 24 26 17 0 -10 4 -10 20 0 22 14 26 33 8 44
-6 4 -8 3 -5 -3z"/>
<path d="M1465 479 c-4 -6 -5 -12 -2 -15 7 -7 37 7 37 17 0 13 -27 11 -35 -2z"/>
<path d="M2103 335 c0 -8 4 -12 9 -9 5 3 6 10 3 15 -9 13 -12 11 -12 -6z"/>
<path d="M2065 260 c-3 -5 -1 -10 4 -10 6 0 11 5 11 10 0 6 -2 10 -4 10 -3 0
-8 -4 -11 -10z"/>
<path d="M1915 160 c-3 -5 -1 -10 4 -10 6 0 11 5 11 10 0 6 -2 10 -4 10 -3 0
-8 -4 -11 -10z"/>
<path d="M1900 1926 c0 -2 11 -6 25 -8 13 -3 22 -1 19 3 -5 9 -44 13 -44 5z"/>
<path d="M600 1894 c0 -8 5 -12 10 -9 6 4 8 11 5 16 -9 14 -15 11 -15 -7z"/>
<path d="M396 1715 c-11 -8 -15 -15 -9 -15 6 0 16 7 23 15 16 19 11 19 -14 0z"/>
<path d="M275 1620 c3 -5 11 -10 16 -10 6 0 7 5 4 10 -3 6 -11 10 -16 10 -6 0
-7 -4 -4 -10z"/>
<path d="M14 1596 c-10 -8 -16 -17 -13 -20 3 -3 16 3 29 14 26 23 14 27 -16 6z"/>
<path d="M253 703 c0 -9 4 -10 14 -2 7 6 13 12 13 14 0 1 -6 2 -13 2 -8 0 -14
-6 -14 -14z"/>
<path d="M435 700 c-3 -5 -1 -10 4 -10 6 0 11 5 11 10 0 6 -2 10 -4 10 -3 0
-8 -4 -11 -10z"/>
<path d="M260 601 c0 -6 6 -11 13 -11 8 0 7 -4 -3 -10 -9 -6 -10 -10 -3 -10
19 0 24 17 8 30 -10 9 -15 9 -15 1z"/>
<path d="M177 472 c-15 -3 -15 -7 -2 -40 20 -48 20 -47 52 -25 38 27 53 35 53
30 0 -2 -18 -16 -40 -31 -46 -30 -49 -40 -17 -57 20 -11 21 -11 8 5 -8 9 -10
16 -5 14 11 -3 74 34 74 44 0 4 -10 19 -23 34 -23 26 -56 34 -100 26z"/>
<path d="M304 449 c-3 -6 -1 -16 4 -21 8 -8 11 -5 9 11 -1 24 -3 25 -13 10z"/>
<path d="M2235 230 c-10 -11 -16 -22 -14 -24 2 -2 12 7 22 20 22 29 17 32 -8
4z"/>
<path d="M1786 63 c-6 -14 -5 -15 5 -6 7 7 10 15 7 18 -3 3 -9 -2 -12 -12z"/>
<path d="M2069 34 c-21 -24 -22 -26 -3 -16 25 13 50 42 37 42 -5 0 -20 -12
-34 -26z"/>
<path d="M410 42 c0 -6 -3 -17 -6 -26 -5 -13 1 -16 25 -16 17 0 31 5 31 10 0
6 -4 10 -9 10 -5 0 -17 7 -25 16 -9 8 -16 11 -16 6z"/>
<path d="M1300 30 c0 -5 5 -10 11 -10 5 0 7 5 4 10 -3 6 -8 10 -11 10 -2 0 -4
-4 -4 -10z"/>
<path d="M1960 30 c-9 -6 -10 -10 -3 -10 6 0 15 5 18 10 8 12 4 12 -15 0z"/>
<path d="M771 14 c0 -11 3 -14 6 -6 3 7 2 16 -1 19 -3 4 -6 -2 -5 -13z"/>
</g>
</svg>
